<?xml version="1.0" encoding="utf-8" standalone="no"?>
<!DOCTYPE svg PUBLIC "-//W3C//DTD SVG 1.1//EN"
  "http://www.w3.org/Graphics/SVG/1.1/DTD/svg11.dtd">
<svg xmlns:xlink="http://www.w3.org/1999/xlink" width="677.848268pt" height="550.255117pt" viewBox="0 0 677.848268 550.255117" xmlns="http://www.w3.org/2000/svg" version="1.1">
 <metadata>
  <rdf:RDF xmlns:dc="http://purl.org/dc/elements/1.1/" xmlns:cc="http://creativecommons.org/ns#" xmlns:rdf="http://www.w3.org/1999/02/22-rdf-syntax-ns#">
   <cc:Work>
    <dc:type rdf:resource="http://purl.org/dc/dcmitype/StillImage"/>
    <dc:date>2023-10-21T00:16:55.771834</dc:date>
    <dc:format>image/svg+xml</dc:format>
    <dc:creator>
     <cc:Agent>
      <dc:title>Matplotlib v3.7.0, https://matplotlib.org/</dc:title>
     </cc:Agent>
    </dc:creator>
   </cc:Work>
  </rdf:RDF>
 </metadata>
 <defs>
  <style type="text/css">*{stroke-linejoin: round; stroke-linecap: butt}</style>
 </defs>
 <g id="figure_1">
  <g id="patch_1">
   <path d="M 0 550.255117 
L 677.848268 550.255117 
L 677.848268 0 
L 0 0 
z
" style="fill: #ffffff"/>
  </g>
  <g id="axes_1">
   <g id="patch_2">
    <path d="M 97.368878 480.315134 
L 651.768878 480.315134 
L 651.768878 36.795134 
L 97.368878 36.795134 
z
" style="fill: #ffffff"/>
   </g>
   <g id="matplotlib.axis_1">
    <g id="xtick_1">
     <g id="line2d_1">
      <defs>
       <path id="m8d34b62866" d="M 0 0 
L 0 7 
" style="stroke: #000000; stroke-width: 3"/>
      </defs>
      <g>
       <use xlink:href="#m8d34b62866" x="651.768878" y="480.315134" style="stroke: #000000; stroke-width: 3"/>
      </g>
     </g>
     <g id="text_1">
      <!-- $\mathdefault{3.60}$ -->
      <g transform="translate(632.889488 506.727676) scale(0.23 -0.23)">
       <defs>
        <path id="CMR17-33" d="M 1414 2157 
C 1984 2157 2234 1662 2234 1090 
C 2234 320 1824 25 1453 25 
C 1114 25 563 194 390 693 
C 422 680 454 680 486 680 
C 640 680 755 782 755 948 
C 755 1133 614 1216 486 1216 
C 378 1216 211 1165 211 926 
C 211 335 787 -128 1466 -128 
C 2176 -128 2720 430 2720 1085 
C 2720 1707 2208 2157 1600 2227 
C 2086 2328 2554 2756 2554 3329 
C 2554 3820 2048 4179 1472 4179 
C 890 4179 378 3829 378 3329 
C 378 3110 544 3072 627 3072 
C 762 3072 877 3155 877 3321 
C 877 3486 762 3569 627 3569 
C 602 3569 570 3569 544 3557 
C 730 3959 1235 4032 1459 4032 
C 1683 4032 2106 3925 2106 3320 
C 2106 3143 2080 2828 1862 2550 
C 1670 2304 1453 2304 1242 2284 
C 1210 2284 1062 2269 1037 2269 
C 992 2263 966 2257 966 2208 
C 966 2163 973 2157 1101 2157 
L 1414 2157 
z
" transform="scale(0.015625)"/>
        <path id="CMMI12-3a" d="M 1178 307 
C 1178 492 1024 619 870 619 
C 685 619 557 466 557 313 
C 557 128 710 0 864 0 
C 1050 0 1178 153 1178 307 
z
" transform="scale(0.015625)"/>
        <path id="CMR17-36" d="M 678 2176 
C 678 3690 1395 4032 1811 4032 
C 1946 4032 2272 4009 2400 3776 
C 2298 3776 2106 3776 2106 3553 
C 2106 3381 2246 3323 2336 3323 
C 2394 3323 2566 3348 2566 3560 
C 2566 3954 2246 4179 1805 4179 
C 1043 4179 243 3390 243 1984 
C 243 253 966 -128 1478 -128 
C 2099 -128 2688 427 2688 1283 
C 2688 2081 2170 2662 1517 2662 
C 1126 2662 838 2407 678 1960 
L 678 2176 
z
M 1478 25 
C 691 25 691 1200 691 1436 
C 691 1896 909 2560 1504 2560 
C 1613 2560 1926 2560 2138 2120 
C 2253 1870 2253 1609 2253 1289 
C 2253 944 2253 690 2118 434 
C 1978 171 1773 25 1478 25 
z
" transform="scale(0.015625)"/>
        <path id="CMR17-30" d="M 2688 2025 
C 2688 2416 2682 3080 2413 3591 
C 2176 4039 1798 4198 1466 4198 
C 1158 4198 768 4058 525 3597 
C 269 3118 243 2524 243 2025 
C 243 1661 250 1106 448 619 
C 723 -39 1216 -128 1466 -128 
C 1760 -128 2208 -7 2470 600 
C 2662 1042 2688 1559 2688 2025 
z
M 1466 -26 
C 1056 -26 813 325 723 812 
C 653 1188 653 1738 653 2096 
C 653 2588 653 2997 736 3387 
C 858 3929 1216 4096 1466 4096 
C 1728 4096 2067 3923 2189 3400 
C 2272 3036 2278 2607 2278 2096 
C 2278 1680 2278 1169 2202 792 
C 2067 95 1690 -26 1466 -26 
z
" transform="scale(0.015625)"/>
       </defs>
       <use xlink:href="#CMR17-33" transform="scale(0.996264)"/>
       <use xlink:href="#CMMI12-3a" transform="translate(45.690477 0) scale(0.996264)"/>
       <use xlink:href="#CMR17-36" transform="translate(72.787654 0) scale(0.996264)"/>
       <use xlink:href="#CMR17-30" transform="translate(118.478131 0) scale(0.996264)"/>
      </g>
     </g>
    </g>
    <g id="xtick_2">
     <g id="line2d_2">
      <g>
       <use xlink:href="#m8d34b62866" x="559.368878" y="480.315134" style="stroke: #000000; stroke-width: 3"/>
      </g>
     </g>
     <g id="text_2">
      <!-- $\mathdefault{3.65}$ -->
      <g transform="translate(540.489488 506.727676) scale(0.23 -0.23)">
       <defs>
        <path id="CMR17-35" d="M 730 3692 
C 794 3666 1056 3584 1325 3584 
C 1920 3584 2246 3911 2432 4100 
C 2432 4157 2432 4192 2394 4192 
C 2387 4192 2374 4192 2323 4163 
C 2099 4058 1837 3973 1517 3973 
C 1325 3973 1037 3999 723 4139 
C 653 4171 640 4171 634 4171 
C 602 4171 595 4164 595 4037 
L 595 2203 
C 595 2089 595 2057 659 2057 
C 691 2057 704 2070 736 2114 
C 941 2401 1222 2522 1542 2522 
C 1766 2522 2246 2382 2246 1289 
C 2246 1085 2246 715 2054 421 
C 1894 159 1645 25 1370 25 
C 947 25 518 320 403 814 
C 429 807 480 795 506 795 
C 589 795 749 840 749 1038 
C 749 1210 627 1280 506 1280 
C 358 1280 262 1190 262 1011 
C 262 454 704 -128 1382 -128 
C 2042 -128 2669 440 2669 1264 
C 2669 2030 2170 2624 1549 2624 
C 1222 2624 947 2503 730 2274 
L 730 3692 
z
" transform="scale(0.015625)"/>
       </defs>
       <use xlink:href="#CMR17-33" transform="scale(0.996264)"/>
       <use xlink:href="#CMMI12-3a" transform="translate(45.690477 0) scale(0.996264)"/>
       <use xlink:href="#CMR17-36" transform="translate(72.787654 0) scale(0.996264)"/>
       <use xlink:href="#CMR17-35" transform="translate(118.478131 0) scale(0.996264)"/>
      </g>
     </g>
    </g>
    <g id="xtick_3">
     <g id="line2d_3">
      <g>
       <use xlink:href="#m8d34b62866" x="466.968878" y="480.315134" style="stroke: #000000; stroke-width: 3"/>
      </g>
     </g>
     <g id="text_3">
      <!-- $\mathdefault{3.70}$ -->
      <g transform="translate(448.089488 506.727676) scale(0.23 -0.23)">
       <defs>
        <path id="CMR17-37" d="M 2886 3941 
L 2886 4081 
L 1382 4081 
C 634 4081 621 4165 595 4288 
L 480 4288 
L 294 3094 
L 410 3094 
C 429 3215 474 3540 550 3661 
C 589 3712 1062 3712 1171 3712 
L 2579 3712 
L 1869 2661 
C 1395 1954 1069 999 1069 165 
C 1069 89 1069 -128 1299 -128 
C 1530 -128 1530 89 1530 171 
L 1530 465 
C 1530 1508 1709 2196 2003 2636 
L 2886 3941 
z
" transform="scale(0.015625)"/>
       </defs>
       <use xlink:href="#CMR17-33" transform="scale(0.996264)"/>
       <use xlink:href="#CMMI12-3a" transform="translate(45.690477 0) scale(0.996264)"/>
       <use xlink:href="#CMR17-37" transform="translate(72.787654 0) scale(0.996264)"/>
       <use xlink:href="#CMR17-30" transform="translate(118.478131 0) scale(0.996264)"/>
      </g>
     </g>
    </g>
    <g id="xtick_4">
     <g id="line2d_4">
      <g>
       <use xlink:href="#m8d34b62866" x="374.568878" y="480.315134" style="stroke: #000000; stroke-width: 3"/>
      </g>
     </g>
     <g id="text_4">
      <!-- $\mathdefault{3.75}$ -->
      <g transform="translate(355.689488 506.727676) scale(0.23 -0.23)">
       <use xlink:href="#CMR17-33" transform="scale(0.996264)"/>
       <use xlink:href="#CMMI12-3a" transform="translate(45.690477 0) scale(0.996264)"/>
       <use xlink:href="#CMR17-37" transform="translate(72.787654 0) scale(0.996264)"/>
       <use xlink:href="#CMR17-35" transform="translate(118.478131 0) scale(0.996264)"/>
      </g>
     </g>
    </g>
    <g id="xtick_5">
     <g id="line2d_5">
      <g>
       <use xlink:href="#m8d34b62866" x="282.168878" y="480.315134" style="stroke: #000000; stroke-width: 3"/>
      </g>
     </g>
     <g id="text_5">
      <!-- $\mathdefault{3.80}$ -->
      <g transform="translate(263.289488 506.727676) scale(0.23 -0.23)">
       <defs>
        <path id="CMR17-38" d="M 1741 2264 
C 2144 2467 2554 2773 2554 3263 
C 2554 3841 1990 4179 1472 4179 
C 890 4179 378 3759 378 3180 
C 378 3021 416 2747 666 2505 
C 730 2442 998 2251 1171 2130 
C 883 1983 211 1634 211 934 
C 211 279 838 -128 1459 -128 
C 2144 -128 2720 362 2720 1010 
C 2720 1590 2330 1857 2074 2029 
L 1741 2264 
z
M 902 2822 
C 851 2854 595 3051 595 3351 
C 595 3739 998 4032 1459 4032 
C 1965 4032 2336 3676 2336 3262 
C 2336 2669 1670 2331 1638 2331 
C 1632 2331 1626 2331 1574 2370 
L 902 2822 
z
M 2080 1519 
C 2176 1449 2483 1240 2483 851 
C 2483 381 2010 25 1472 25 
C 890 25 448 438 448 940 
C 448 1443 838 1862 1280 2060 
L 2080 1519 
z
" transform="scale(0.015625)"/>
       </defs>
       <use xlink:href="#CMR17-33" transform="scale(0.996264)"/>
       <use xlink:href="#CMMI12-3a" transform="translate(45.690477 0) scale(0.996264)"/>
       <use xlink:href="#CMR17-38" transform="translate(72.787654 0) scale(0.996264)"/>
       <use xlink:href="#CMR17-30" transform="translate(118.478131 0) scale(0.996264)"/>
      </g>
     </g>
    </g>
    <g id="xtick_6">
     <g id="line2d_6">
      <g>
       <use xlink:href="#m8d34b62866" x="189.768878" y="480.315134" style="stroke: #000000; stroke-width: 3"/>
      </g>
     </g>
     <g id="text_6">
      <!-- $\mathdefault{3.85}$ -->
      <g transform="translate(170.889488 506.727676) scale(0.23 -0.23)">
       <use xlink:href="#CMR17-33" transform="scale(0.996264)"/>
       <use xlink:href="#CMMI12-3a" transform="translate(45.690477 0) scale(0.996264)"/>
       <use xlink:href="#CMR17-38" transform="translate(72.787654 0) scale(0.996264)"/>
       <use xlink:href="#CMR17-35" transform="translate(118.478131 0) scale(0.996264)"/>
      </g>
     </g>
    </g>
    <g id="xtick_7">
     <g id="line2d_7">
      <g>
       <use xlink:href="#m8d34b62866" x="97.368878" y="480.315134" style="stroke: #000000; stroke-width: 3"/>
      </g>
     </g>
     <g id="text_7">
      <!-- $\mathdefault{3.90}$ -->
      <g transform="translate(78.489488 506.727676) scale(0.23 -0.23)">
       <defs>
        <path id="CMR17-39" d="M 2253 1864 
C 2253 464 1670 31 1190 31 
C 1043 31 685 31 538 294 
C 704 268 826 357 826 518 
C 826 692 685 749 595 749 
C 538 749 365 723 365 506 
C 365 71 742 -128 1203 -128 
C 1939 -128 2688 674 2688 2073 
C 2688 3817 1971 4179 1485 4179 
C 851 4179 243 3628 243 2778 
C 243 1991 762 1408 1414 1408 
C 1952 1408 2189 1903 2253 2112 
L 2253 1864 
z
M 1427 1510 
C 1254 1510 1011 1542 813 1922 
C 678 2169 678 2461 678 2771 
C 678 3146 678 3405 858 3684 
C 947 3817 1114 4032 1485 4032 
C 2240 4032 2240 2885 2240 2632 
C 2240 2182 2035 1510 1427 1510 
z
" transform="scale(0.015625)"/>
       </defs>
       <use xlink:href="#CMR17-33" transform="scale(0.996264)"/>
       <use xlink:href="#CMMI12-3a" transform="translate(45.690477 0) scale(0.996264)"/>
       <use xlink:href="#CMR17-39" transform="translate(72.787654 0) scale(0.996264)"/>
       <use xlink:href="#CMR17-30" transform="translate(118.478131 0) scale(0.996264)"/>
      </g>
     </g>
    </g>
    <g id="text_8">
     <!-- $\bm{\log_{10}\!\left(T_{eff}\right)}$ -->
     <g transform="translate(305.617432 535.359002) scale(0.27 -0.27)">
      <defs>
       <path id="CMBX12-6c" d="M 1389 4416 
L 282 4416 
L 282 4117 
C 678 4117 723 4117 723 3866 
L 723 260 
L 282 260 
L 282 -13 
C 429 0 883 0 1056 0 
C 1229 0 1683 0 1830 -13 
L 1830 260 
L 1389 260 
L 1389 4416 
z
" transform="scale(0.015625)"/>
       <path id="CMBX12-6f" d="M 3392 1395 
C 3392 2252 2803 2880 1798 2880 
C 755 2880 198 2220 198 1395 
C 198 565 787 -32 1792 -32 
C 2835 -32 3392 596 3392 1395 
z
M 1798 197 
C 966 197 966 939 966 1459 
C 966 1757 966 2074 1088 2303 
C 1229 2556 1517 2670 1792 2670 
C 2157 2670 2387 2499 2496 2322 
C 2624 2093 2624 1763 2624 1459 
C 2624 932 2624 197 1798 197 
z
" transform="scale(0.015625)"/>
       <path id="CMBX12-67" d="M 832 1189 
C 1139 1024 1498 1024 1594 1024 
C 2477 1024 2829 1514 2829 1960 
C 2829 2285 2643 2515 2566 2578 
C 2752 2676 2906 2700 3014 2713 
C 2995 2682 2976 2658 2976 2578 
C 2976 2450 3066 2334 3232 2334 
C 3398 2334 3488 2455 3488 2588 
C 3488 2741 3373 2944 3104 2944 
C 2829 2944 2566 2803 2432 2682 
C 2170 2834 1920 2891 1594 2891 
C 710 2891 358 2403 358 1957 
C 358 1760 422 1501 691 1285 
C 582 1161 467 933 467 699 
C 467 420 614 180 749 76 
C 595 39 198 -105 198 -461 
C 198 -830 614 -1248 1792 -1248 
C 2854 -1248 3392 -910 3392 -439 
C 3392 114 3021 295 2861 370 
C 2554 521 2144 521 1581 521 
C 1421 521 1139 521 1107 527 
C 832 575 755 829 755 957 
C 755 1010 762 1107 832 1189 
z
M 1594 1227 
C 1037 1227 1037 1665 1037 1957 
C 1037 2250 1037 2688 1594 2688 
C 2150 2688 2150 2250 2150 1957 
C 2150 1665 2150 1227 1594 1227 
z
M 1952 -64 
C 2419 -64 2867 -145 2867 -467 
C 2867 -685 2643 -1045 1798 -1045 
C 954 -1045 723 -697 723 -461 
C 723 -64 1126 -64 1222 -64 
L 1952 -64 
z
" transform="scale(0.015625)"/>
       <path id="CMBX12-31" d="M 2214 3975 
C 2214 4160 2202 4160 1997 4160 
C 1523 3776 813 3776 672 3776 
L 550 3776 
L 550 3503 
L 672 3503 
C 896 3503 1235 3541 1491 3624 
L 1491 267 
L 602 267 
L 602 0 
C 870 0 1542 0 1843 0 
C 2144 0 2822 0 3091 0 
L 3091 267 
L 2214 267 
L 2214 3975 
z
" transform="scale(0.015625)"/>
       <path id="CMBX12-30" d="M 3309 2038 
C 3309 2648 3309 4178 1798 4178 
C 282 4178 282 2654 282 2038 
C 282 1428 282 -64 1792 -64 
C 3302 -64 3309 1409 3309 2038 
z
M 1798 146 
C 1594 146 1440 228 1312 362 
C 1152 521 1050 621 1050 2114 
C 1050 2559 1050 2964 1101 3295 
C 1190 3924 1651 3968 1792 3968 
C 1997 3968 2394 3873 2483 3340 
C 2541 3015 2541 2501 2541 2114 
C 2541 615 2445 527 2253 336 
C 2125 209 1952 146 1798 146 
z
" transform="scale(0.015625)"/>
       <path id="CMEX10-0" d="M 2643 -7354 
C 2643 -7328 2630 -7315 2618 -7296 
C 2323 -6982 1888 -6464 1619 -5421 
C 1472 -4838 1414 -4179 1414 -3584 
C 1414 -1901 1818 -723 2586 109 
C 2643 166 2643 179 2643 192 
C 2643 256 2592 256 2566 256 
C 2470 256 2125 -128 2042 -224 
C 1389 -998 973 -2150 973 -3578 
C 973 -4486 1133 -5773 1971 -6854 
C 2035 -6931 2451 -7418 2566 -7418 
C 2592 -7418 2643 -7418 2643 -7354 
z
" transform="scale(0.015625)"/>
       <path id="CMMIB10-54" d="M 3155 3873 
C 3181 3975 3187 3982 3309 3988 
L 3578 3988 
C 4192 3988 4506 3956 4506 3422 
C 4506 3256 4486 3142 4461 2990 
C 4461 2952 4448 2888 4448 2875 
C 4448 2754 4563 2754 4602 2754 
C 4723 2754 4742 2805 4762 2933 
L 4941 4160 
C 4941 4288 4851 4288 4723 4288 
L 838 4288 
C 691 4288 653 4288 608 4160 
L 198 2983 
C 198 2977 160 2882 160 2869 
C 160 2754 282 2754 314 2754 
C 422 2754 435 2786 486 2913 
C 819 3842 1043 3988 1952 3988 
C 2144 3988 2157 3988 2285 3988 
L 1370 325 
C 1331 319 1165 293 838 293 
L 570 293 
C 448 293 339 293 339 119 
C 339 0 448 0 493 0 
C 691 0 896 0 1101 0 
C 1312 0 1523 0 1734 0 
C 1952 0 2170 0 2387 0 
C 2592 0 2797 0 3002 0 
C 3078 0 3200 0 3200 181 
C 3200 293 3091 293 2982 293 
L 2720 293 
C 2566 293 2413 293 2259 313 
L 3155 3873 
z
" transform="scale(0.015625)"/>
       <path id="CMMIB10-65" d="M 1421 1371 
C 1850 1371 2266 1409 2534 1500 
C 3078 1687 3168 2054 3168 2261 
C 3168 2635 2816 2880 2291 2880 
C 1133 2880 314 2079 314 1088 
C 314 352 806 -64 1651 -64 
C 1818 -64 2259 -64 2643 84 
C 3014 231 3270 495 3270 572 
C 3270 623 3168 737 3110 737 
C 3072 737 3059 718 3014 667 
C 2669 306 2170 165 1670 165 
C 1210 165 1043 419 1043 780 
C 1043 901 1069 1111 1139 1371 
L 1421 1371 
z
M 1197 1600 
C 1312 2073 1466 2248 1574 2352 
C 1798 2579 2093 2650 2291 2650 
C 2522 2650 2784 2546 2784 2255 
C 2784 1600 1818 1600 1197 1600 
z
" transform="scale(0.015625)"/>
       <path id="CMMIB10-66" d="M 2746 2516 
L 3494 2516 
C 3616 2516 3731 2516 3731 2701 
C 3731 2816 3622 2816 3514 2816 
L 2797 2816 
L 3008 3985 
C 3027 4102 3027 4114 3091 4173 
C 3174 4250 3245 4250 3277 4250 
C 3366 4250 3424 4237 3501 4205 
C 3347 4127 3232 3960 3232 3785 
C 3232 3590 3386 3487 3546 3487 
C 3808 3487 4006 3720 4006 3964 
C 4006 4293 3674 4480 3277 4480 
C 2976 4480 2618 4358 2394 3996 
C 2246 3757 2208 3506 2086 2816 
L 1459 2816 
C 1338 2816 1229 2816 1229 2631 
C 1229 2516 1338 2516 1440 2516 
L 2029 2516 
L 1542 -183 
C 1530 -240 1459 -638 1427 -728 
C 1414 -760 1312 -1051 1107 -1051 
C 986 -1051 934 -1032 890 -1013 
C 1050 -937 1171 -772 1171 -595 
C 1171 -405 1018 -303 858 -303 
C 595 -303 397 -531 397 -772 
C 397 -1115 762 -1280 1094 -1280 
C 1574 -1280 1907 -811 1958 -729 
C 2234 -310 2381 495 2400 602 
L 2746 2516 
z
" transform="scale(0.015625)"/>
       <path id="CMEX10-1" d="M 1952 -3584 
C 1952 -2675 1792 -1389 954 -307 
C 890 -230 474 256 358 256 
C 326 256 282 243 282 192 
C 282 166 294 147 320 128 
C 627 -205 1043 -723 1306 -1741 
C 1453 -2323 1510 -2982 1510 -3578 
C 1510 -4224 1453 -4877 1286 -5504 
C 1043 -6400 666 -6912 339 -7270 
C 282 -7328 282 -7341 282 -7354 
C 282 -7405 326 -7418 358 -7418 
C 454 -7418 806 -7027 883 -6938 
C 1536 -6163 1952 -5011 1952 -3584 
z
" transform="scale(0.015625)"/>
      </defs>
      <use xlink:href="#CMBX12-6c" transform="scale(0.996264)"/>
      <use xlink:href="#CMBX12-6f" transform="translate(31.13325 0) scale(0.996264)"/>
      <use xlink:href="#CMBX12-67" transform="translate(87.173101 0) scale(0.996264)"/>
      <use xlink:href="#CMBX12-31" transform="translate(144.769614 -22.858631) scale(0.697382)"/>
      <use xlink:href="#CMBX12-30" transform="translate(183.997327 -22.858631) scale(0.697382)"/>
      <use xlink:href="#CMEX10-0" transform="translate(223.723172 80.698084) scale(0.996264)"/>
      <use xlink:href="#CMMIB10-54" transform="translate(269.385526 0) scale(0.996264)"/>
      <use xlink:href="#CMMIB10-65" transform="translate(332.810402 -14.943915) scale(0.697382)"/>
      <use xlink:href="#CMMIB10-66" transform="translate(371.418065 -14.943915) scale(0.697382)"/>
      <use xlink:href="#CMMIB10-66" transform="translate(418.733612 -14.943915) scale(0.697382)"/>
      <use xlink:href="#CMEX10-1" transform="translate(466.547292 80.698084) scale(0.996264)"/>
     </g>
    </g>
   </g>
   <g id="matplotlib.axis_2">
    <g id="ytick_1">
     <g id="line2d_8">
      <defs>
       <path id="m70c6e3e71b" d="M 0 0 
L -7 0 
" style="stroke: #000000; stroke-width: 3"/>
      </defs>
      <g>
       <use xlink:href="#m70c6e3e71b" x="97.368878" y="480.315134" style="stroke: #000000; stroke-width: 3"/>
      </g>
     </g>
     <g id="text_9">
      <!-- $\mathdefault{3.4}$ -->
      <g transform="translate(59.618908 488.271405) scale(0.23 -0.23)">
       <defs>
        <path id="CMR17-34" d="M 2150 4122 
C 2150 4256 2144 4256 2029 4256 
L 128 1254 
L 128 1088 
L 1779 1088 
L 1779 457 
C 1779 224 1766 160 1318 160 
L 1197 160 
L 1197 0 
C 1402 0 1747 0 1965 0 
C 2182 0 2528 0 2733 0 
L 2733 160 
L 2611 160 
C 2163 160 2150 224 2150 457 
L 2150 1088 
L 2803 1088 
L 2803 1254 
L 2150 1254 
L 2150 4122 
z
M 1798 3703 
L 1798 1254 
L 256 1254 
L 1798 3703 
z
" transform="scale(0.015625)"/>
       </defs>
       <use xlink:href="#CMR17-33" transform="scale(0.996264)"/>
       <use xlink:href="#CMMI12-3a" transform="translate(45.690477 0) scale(0.996264)"/>
       <use xlink:href="#CMR17-34" transform="translate(72.787654 0) scale(0.996264)"/>
      </g>
     </g>
    </g>
    <g id="ytick_2">
     <g id="line2d_9">
      <g>
       <use xlink:href="#m70c6e3e71b" x="97.368878" y="424.875134" style="stroke: #000000; stroke-width: 3"/>
      </g>
     </g>
     <g id="text_10">
      <!-- $\mathdefault{3.5}$ -->
      <g transform="translate(59.618908 432.831405) scale(0.23 -0.23)">
       <use xlink:href="#CMR17-33" transform="scale(0.996264)"/>
       <use xlink:href="#CMMI12-3a" transform="translate(45.690477 0) scale(0.996264)"/>
       <use xlink:href="#CMR17-35" transform="translate(72.787654 0) scale(0.996264)"/>
      </g>
     </g>
    </g>
    <g id="ytick_3">
     <g id="line2d_10">
      <g>
       <use xlink:href="#m70c6e3e71b" x="97.368878" y="369.435134" style="stroke: #000000; stroke-width: 3"/>
      </g>
     </g>
     <g id="text_11">
      <!-- $\mathdefault{3.6}$ -->
      <g transform="translate(59.618908 377.391405) scale(0.23 -0.23)">
       <use xlink:href="#CMR17-33" transform="scale(0.996264)"/>
       <use xlink:href="#CMMI12-3a" transform="translate(45.690477 0) scale(0.996264)"/>
       <use xlink:href="#CMR17-36" transform="translate(72.787654 0) scale(0.996264)"/>
      </g>
     </g>
    </g>
    <g id="ytick_4">
     <g id="line2d_11">
      <g>
       <use xlink:href="#m70c6e3e71b" x="97.368878" y="313.995134" style="stroke: #000000; stroke-width: 3"/>
      </g>
     </g>
     <g id="text_12">
      <!-- $\mathdefault{3.7}$ -->
      <g transform="translate(59.618908 321.951405) scale(0.23 -0.23)">
       <use xlink:href="#CMR17-33" transform="scale(0.996264)"/>
       <use xlink:href="#CMMI12-3a" transform="translate(45.690477 0) scale(0.996264)"/>
       <use xlink:href="#CMR17-37" transform="translate(72.787654 0) scale(0.996264)"/>
      </g>
     </g>
    </g>
    <g id="ytick_5">
     <g id="line2d_12">
      <g>
       <use xlink:href="#m70c6e3e71b" x="97.368878" y="258.555134" style="stroke: #000000; stroke-width: 3"/>
      </g>
     </g>
     <g id="text_13">
      <!-- $\mathdefault{3.8}$ -->
      <g transform="translate(59.618908 266.511405) scale(0.23 -0.23)">
       <use xlink:href="#CMR17-33" transform="scale(0.996264)"/>
       <use xlink:href="#CMMI12-3a" transform="translate(45.690477 0) scale(0.996264)"/>
       <use xlink:href="#CMR17-38" transform="translate(72.787654 0) scale(0.996264)"/>
      </g>
     </g>
    </g>
    <g id="ytick_6">
     <g id="line2d_13">
      <g>
       <use xlink:href="#m70c6e3e71b" x="97.368878" y="203.115134" style="stroke: #000000; stroke-width: 3"/>
      </g>
     </g>
     <g id="text_14">
      <!-- $\mathdefault{3.9}$ -->
      <g transform="translate(59.618908 211.071405) scale(0.23 -0.23)">
       <use xlink:href="#CMR17-33" transform="scale(0.996264)"/>
       <use xlink:href="#CMMI12-3a" transform="translate(45.690477 0) scale(0.996264)"/>
       <use xlink:href="#CMR17-39" transform="translate(72.787654 0) scale(0.996264)"/>
      </g>
     </g>
    </g>
    <g id="ytick_7">
     <g id="line2d_14">
      <g>
       <use xlink:href="#m70c6e3e71b" x="97.368878" y="147.675134" style="stroke: #000000; stroke-width: 3"/>
      </g>
     </g>
     <g id="text_15">
      <!-- $\mathdefault{4.0}$ -->
      <g transform="translate(59.618908 155.631405) scale(0.23 -0.23)">
       <use xlink:href="#CMR17-34" transform="scale(0.996264)"/>
       <use xlink:href="#CMMI12-3a" transform="translate(45.690477 0) scale(0.996264)"/>
       <use xlink:href="#CMR17-30" transform="translate(72.787654 0) scale(0.996264)"/>
      </g>
     </g>
    </g>
    <g id="ytick_8">
     <g id="line2d_15">
      <g>
       <use xlink:href="#m70c6e3e71b" x="97.368878" y="92.235134" style="stroke: #000000; stroke-width: 3"/>
      </g>
     </g>
     <g id="text_16">
      <!-- $\mathdefault{4.1}$ -->
      <g transform="translate(59.618908 100.191405) scale(0.23 -0.23)">
       <defs>
        <path id="CMR17-31" d="M 1702 4058 
C 1702 4192 1696 4192 1606 4192 
C 1357 3916 979 3827 621 3827 
C 602 3827 570 3827 563 3808 
C 557 3795 557 3782 557 3648 
C 755 3648 1088 3686 1344 3839 
L 1344 461 
C 1344 236 1331 160 781 160 
L 589 160 
L 589 0 
C 896 0 1216 0 1523 0 
C 1830 0 2150 0 2458 0 
L 2458 160 
L 2266 160 
C 1715 160 1702 230 1702 458 
L 1702 4058 
z
" transform="scale(0.015625)"/>
       </defs>
       <use xlink:href="#CMR17-34" transform="scale(0.996264)"/>
       <use xlink:href="#CMMI12-3a" transform="translate(45.690477 0) scale(0.996264)"/>
       <use xlink:href="#CMR17-31" transform="translate(72.787654 0) scale(0.996264)"/>
      </g>
     </g>
    </g>
    <g id="ytick_9">
     <g id="line2d_16">
      <g>
       <use xlink:href="#m70c6e3e71b" x="97.368878" y="36.795134" style="stroke: #000000; stroke-width: 3"/>
      </g>
     </g>
     <g id="text_17">
      <!-- $\mathdefault{4.2}$ -->
      <g transform="translate(59.618908 44.751405) scale(0.23 -0.23)">
       <defs>
        <path id="CMR17-32" d="M 2669 989 
L 2554 989 
C 2490 536 2438 459 2413 420 
C 2381 369 1920 369 1830 369 
L 602 369 
C 832 619 1280 1072 1824 1597 
C 2214 1967 2669 2402 2669 3035 
C 2669 3790 2067 4224 1395 4224 
C 691 4224 262 3604 262 3030 
C 262 2780 448 2748 525 2748 
C 589 2748 781 2787 781 3010 
C 781 3207 614 3264 525 3264 
C 486 3264 448 3258 422 3245 
C 544 3790 915 4058 1306 4058 
C 1862 4058 2227 3617 2227 3035 
C 2227 2479 1901 2000 1536 1584 
L 262 146 
L 262 0 
L 2515 0 
L 2669 989 
z
" transform="scale(0.015625)"/>
       </defs>
       <use xlink:href="#CMR17-34" transform="scale(0.996264)"/>
       <use xlink:href="#CMMI12-3a" transform="translate(45.690477 0) scale(0.996264)"/>
       <use xlink:href="#CMR17-32" transform="translate(72.787654 0) scale(0.996264)"/>
      </g>
     </g>
    </g>
    <g id="text_18">
     <!-- $\bm{\log_{10}\!\left(\frac{L}{L_{\odot}}\right)}$ -->
     <g transform="translate(38.134229 319.577118) rotate(-90) scale(0.27 -0.27)">
      <defs>
       <path id="CMEX10-10" d="M 3296 -11187 
C 3309 -11194 3366 -11258 3373 -11258 
L 3514 -11258 
C 3533 -11258 3584 -11251 3584 -11194 
C 3584 -11168 3571 -11155 3558 -11136 
C 3328 -10906 2982 -10554 2586 -9850 
C 1894 -8621 1638 -7040 1638 -5504 
C 1638 -2662 2445 -992 3565 141 
C 3584 160 3584 179 3584 192 
C 3584 256 3539 256 3462 256 
C 3379 256 3366 256 3309 205 
C 2701 -320 2016 -1210 1574 -2560 
C 1299 -3405 1152 -4435 1152 -5498 
C 1152 -7014 1427 -8730 2432 -10214 
C 2605 -10464 2842 -10726 2842 -10733 
C 2906 -10810 2995 -10912 3046 -10957 
L 3296 -11187 
z
" transform="scale(0.015625)"/>
       <path id="CMMIB10-4c" d="M 2822 3931 
C 2848 4021 2854 4027 2867 4033 
C 2880 4040 2989 4065 3322 4065 
L 3533 4065 
C 3661 4065 3763 4065 3763 4242 
C 3763 4352 3642 4352 3616 4352 
C 3430 4352 3238 4352 3046 4352 
C 2867 4352 2688 4352 2509 4352 
C 2330 4352 2150 4352 1978 4352 
C 1811 4352 1645 4352 1485 4352 
C 1427 4352 1299 4352 1299 4175 
C 1299 4065 1382 4065 1568 4065 
C 1702 4065 1824 4065 1958 4065 
L 1043 420 
C 1018 318 1011 312 896 299 
C 787 299 659 299 557 299 
C 390 299 378 299 352 287 
C 275 242 275 140 275 115 
C 275 0 390 0 493 0 
L 3731 0 
C 3904 0 3910 0 3962 140 
C 4032 319 4525 1572 4525 1629 
C 4525 1725 4429 1744 4371 1744 
C 4262 1744 4250 1718 4198 1584 
C 4019 1139 3667 299 2579 299 
L 2067 299 
C 1971 299 1958 299 1914 306 
L 2822 3931 
z
" transform="scale(0.015625)"/>
       <path id="CMBSY10-c" d="M 5306 1603 
C 5306 3065 4333 4041 2861 4041 
C 1363 4041 410 3052 410 1603 
C 410 110 1402 -841 2854 -841 
C 4326 -841 5306 123 5306 1603 
z
M 2854 -540 
C 1549 -540 710 295 710 1597 
C 710 2937 1574 3740 2854 3740 
C 4192 3740 5005 2879 5005 1603 
C 5005 289 4166 -540 2854 -540 
z
M 3507 1600 
C 3507 1978 3200 2253 2861 2253 
C 2483 2253 2208 1946 2208 1606 
C 2208 1229 2515 954 2854 954 
C 3232 954 3507 1261 3507 1600 
z
" transform="scale(0.015625)"/>
       <path id="CMEX10-11" d="M 2662 -5498 
C 2662 -3661 2234 -1709 973 -269 
C 883 -166 646 83 493 218 
C 448 256 435 256 352 256 
C 288 256 230 256 230 192 
C 230 166 256 141 269 128 
C 486 -96 832 -448 1229 -1152 
C 1920 -2381 2176 -3962 2176 -5498 
C 2176 -8275 1408 -9971 256 -11142 
C 243 -11155 230 -11174 230 -11194 
C 230 -11258 288 -11258 352 -11258 
C 435 -11258 448 -11258 506 -11206 
C 1114 -10682 1798 -9792 2240 -8442 
C 2522 -7565 2662 -6528 2662 -5498 
z
" transform="scale(0.015625)"/>
      </defs>
      <use xlink:href="#CMBX12-6c" transform="scale(0.996264)"/>
      <use xlink:href="#CMBX12-6f" transform="translate(31.13325 0) scale(0.996264)"/>
      <use xlink:href="#CMBX12-67" transform="translate(87.173101 0) scale(0.996264)"/>
      <use xlink:href="#CMBX12-31" transform="translate(144.769614 -22.858631) scale(0.697382)"/>
      <use xlink:href="#CMBX12-30" transform="translate(183.997327 -22.858631) scale(0.697382)"/>
      <use xlink:href="#CMEX10-10" transform="translate(223.723172 110.586308) scale(0.996264)"/>
      <use xlink:href="#CMMIB10-4c" transform="translate(306.944493 42.234914) scale(0.697382)"/>
      <use xlink:href="#CMMIB10-4c" transform="translate(284.417975 -37.364157) scale(0.697382)"/>
      <use xlink:href="#CMBSY10-c" transform="translate(337.108737 -47.824853) scale(0.498132)"/>
      <use xlink:href="#CMEX10-11" transform="translate(383.357286 110.586308) scale(0.996264)"/>
      <path d="M 284.417975 22.914133 
L 382.161773 22.914133 
L 382.161773 26.899083 
L 284.417975 26.899083 
L 284.417975 22.914133 
z
"/>
     </g>
    </g>
   </g>
   <g id="PathCollection_1">
    <defs>
     <path id="m37cf3047a3" d="M 0 -12.5 
L -2.806425 -3.862712 
L -11.888206 -3.862712 
L -4.540891 1.475425 
L -7.347316 10.112712 
L -0 4.774575 
L 7.347316 10.112712 
L 4.540891 1.475425 
L 11.888206 -3.862712 
L 2.806425 -3.862712 
z
" style="stroke: #000000"/>
    </defs>
    <g clip-path="url(#p952e01796c)">
     <use xlink:href="#m37cf3047a3" x="7304.568878" y="2365.275134" style="fill: #800080; stroke: #000000"/>
    </g>
   </g>
   <g id="PathCollection_2">
    <defs>
     <path id="mef18b8174d" d="M 0 -12.5 
L -2.806425 -3.862712 
L -11.888206 -3.862712 
L -4.540891 1.475425 
L -7.347316 10.112712 
L -0 4.774575 
L 7.347316 10.112712 
L 4.540891 1.475425 
L 11.888206 -3.862712 
L 2.806425 -3.862712 
z
" style="stroke: #000000"/>
    </defs>
    <g clip-path="url(#p952e01796c)">
     <use xlink:href="#mef18b8174d" x="7304.568878" y="2365.275134" style="fill: #0000ff; stroke: #000000"/>
    </g>
   </g>
   <g id="PathCollection_3">
    <defs>
     <path id="m563361fe43" d="M 0 -12.5 
L -2.806425 -3.862712 
L -11.888206 -3.862712 
L -4.540891 1.475425 
L -7.347316 10.112712 
L -0 4.774575 
L 7.347316 10.112712 
L 4.540891 1.475425 
L 11.888206 -3.862712 
L 2.806425 -3.862712 
z
" style="stroke: #000000"/>
    </defs>
    <g clip-path="url(#p952e01796c)">
     <use xlink:href="#m563361fe43" x="7304.568878" y="2365.275134" style="fill: #008000; stroke: #000000"/>
    </g>
   </g>
   <g id="PathCollection_4">
    <defs>
     <path id="m7652e07d30" d="M 0 -12.5 
L -2.806425 -3.862712 
L -11.888206 -3.862712 
L -4.540891 1.475425 
L -7.347316 10.112712 
L -0 4.774575 
L 7.347316 10.112712 
L 4.540891 1.475425 
L 11.888206 -3.862712 
L 2.806425 -3.862712 
z
" style="stroke: #000000"/>
    </defs>
    <g clip-path="url(#p952e01796c)">
     <use xlink:href="#m7652e07d30" x="7304.568878" y="2365.275134" style="fill: #ffff00; stroke: #000000"/>
    </g>
   </g>
   <g id="PathCollection_5">
    <defs>
     <path id="m805b2eb386" d="M 0 -12.5 
L -2.806425 -3.862712 
L -11.888206 -3.862712 
L -4.540891 1.475425 
L -7.347316 10.112712 
L -0 4.774575 
L 7.347316 10.112712 
L 4.540891 1.475425 
L 11.888206 -3.862712 
L 2.806425 -3.862712 
z
" style="stroke: #000000"/>
    </defs>
    <g clip-path="url(#p952e01796c)">
     <use xlink:href="#m805b2eb386" x="7304.568878" y="2365.275134" style="fill: #ff0000; stroke: #000000"/>
    </g>
   </g>
   <g id="line2d_17">
    <path d="M 97.368878 175.080424 
L 102.968878 181.800424 
L 108.568878 188.520424 
L 114.168878 195.240424 
L 119.768878 201.960424 
L 125.368878 208.680424 
L 130.968878 215.400424 
L 136.568878 222.120424 
L 142.168878 228.840424 
L 147.768878 235.560424 
L 153.368878 242.280424 
L 158.968878 249.000424 
L 164.568878 255.720424 
L 170.168878 262.440424 
L 175.768878 269.160424 
L 181.368878 275.880424 
L 186.968878 282.600424 
L 192.568878 289.320424 
L 198.168878 296.040424 
L 203.768878 302.760424 
L 209.368878 309.480424 
L 214.968878 316.200424 
L 220.568878 322.920424 
L 226.168878 329.640424 
L 231.768878 336.360424 
L 237.368878 343.080424 
L 242.968878 349.800424 
L 248.568878 356.520424 
L 254.168878 363.240424 
L 259.768878 369.960424 
L 265.368878 376.680424 
L 270.968878 383.400424 
L 276.568878 390.120424 
L 282.168878 396.840424 
L 287.768878 403.560424 
L 293.368878 410.280424 
L 298.968878 417.000424 
L 304.568878 423.720424 
L 310.168878 430.440424 
L 315.768878 437.160424 
L 321.368878 443.880424 
L 326.968878 450.600424 
L 332.568878 457.320424 
L 338.168878 464.040424 
L 343.768878 470.760424 
L 349.368878 477.480424 
L 354.968878 484.200424 
L 360.568878 490.920424 
L 366.168878 497.640424 
L 371.768878 504.360424 
L 377.368878 511.080424 
L 382.968878 517.800424 
L 388.568878 524.520424 
L 394.168878 531.240424 
L 399.768878 537.960424 
L 405.368878 544.680424 
L 410.847789 551.255117 
" clip-path="url(#p952e01796c)" style="fill: none; stroke-dasharray: 11.1,4.8; stroke-dashoffset: 0; stroke: #a9a9a9; stroke-width: 3"/>
   </g>
   <g id="line2d_18">
    <path d="M 228.786908 -1 
L 231.768878 2.578365 
L 237.368878 9.298365 
L 242.968878 16.018365 
L 248.568878 22.738365 
L 254.168878 29.458365 
L 259.768878 36.178365 
L 265.368878 42.898365 
L 270.968878 49.618365 
L 276.568878 56.338365 
L 282.168878 63.058365 
L 287.768878 69.778365 
L 293.368878 76.498365 
L 298.968878 83.218365 
L 304.568878 89.938365 
L 310.168878 96.658365 
L 315.768878 103.378365 
L 321.368878 110.098365 
L 326.968878 116.818365 
L 332.568878 123.538365 
L 338.168878 130.258365 
L 343.768878 136.978365 
L 349.368878 143.698365 
L 354.968878 150.418365 
L 360.568878 157.138365 
L 366.168878 163.858365 
L 371.768878 170.578365 
L 377.368878 177.298365 
L 382.968878 184.018365 
L 388.568878 190.738365 
L 394.168878 197.458365 
L 399.768878 204.178365 
L 405.368878 210.898365 
L 410.968878 217.618365 
L 416.568878 224.338365 
L 422.168878 231.058365 
L 427.768878 237.778365 
L 433.368878 244.498365 
L 438.968878 251.218365 
L 444.568878 257.938365 
L 450.168878 264.658365 
L 455.768878 271.378365 
L 461.368878 278.098365 
L 466.968878 284.818365 
L 472.568878 291.538365 
L 478.168878 298.258365 
L 483.768878 304.978365 
L 489.368878 311.698365 
L 494.968878 318.418365 
L 500.568878 325.138365 
L 506.168878 331.858365 
L 511.768878 338.578365 
L 517.368878 345.298365 
L 522.968878 352.018365 
L 528.568878 358.738365 
L 534.168878 365.458365 
L 539.768878 372.178365 
L 545.368878 378.898365 
L 550.968878 385.618365 
L 556.568878 392.338365 
L 562.168878 399.058365 
L 567.768878 405.778365 
L 573.368878 412.498365 
L 578.968878 419.218365 
L 584.568878 425.938365 
L 590.168878 432.658365 
L 595.768878 439.378365 
L 601.368878 446.098365 
L 606.968878 452.818365 
L 612.568878 459.538365 
L 618.168878 466.258365 
L 623.768878 472.978365 
L 629.368878 479.698365 
L 634.968878 486.418365 
L 640.568878 493.138365 
L 646.168878 499.858365 
L 651.768878 506.578365 
" clip-path="url(#p952e01796c)" style="fill: none; stroke-dasharray: 11.1,4.8; stroke-dashoffset: 0; stroke: #a9a9a9; stroke-width: 3"/>
   </g>
   <g id="line2d_19">
    <path d="M 391.495231 -1 
L 394.168878 2.208377 
L 399.768878 8.928377 
L 405.368878 15.648377 
L 410.968878 22.368377 
L 416.568878 29.088377 
L 422.168878 35.808377 
L 427.768878 42.528377 
L 433.368878 49.248377 
L 438.968878 55.968377 
L 444.568878 62.688377 
L 450.168878 69.408377 
L 455.768878 76.128377 
L 461.368878 82.848377 
L 466.968878 89.568377 
L 472.568878 96.288377 
L 478.168878 103.008377 
L 483.768878 109.728377 
L 489.368878 116.448377 
L 494.968878 123.168377 
L 500.568878 129.888377 
L 506.168878 136.608377 
L 511.768878 143.328377 
L 517.368878 150.048377 
L 522.968878 156.768377 
L 528.568878 163.488377 
L 534.168878 170.208377 
L 539.768878 176.928377 
L 545.368878 183.648377 
L 550.968878 190.368377 
L 556.568878 197.088377 
L 562.168878 203.808377 
L 567.768878 210.528377 
L 573.368878 217.248377 
L 578.968878 223.968377 
L 584.568878 230.688377 
L 590.168878 237.408377 
L 595.768878 244.128377 
L 601.368878 250.848377 
L 606.968878 257.568377 
L 612.568878 264.288377 
L 618.168878 271.008377 
L 623.768878 277.728377 
L 629.368878 284.448377 
L 634.968878 291.168377 
L 640.568878 297.888377 
L 646.168878 304.608377 
L 651.768878 311.328377 
" clip-path="url(#p952e01796c)" style="fill: none; stroke-dasharray: 11.1,4.8; stroke-dashoffset: 0; stroke: #a9a9a9; stroke-width: 3"/>
   </g>
   <g id="line2d_20">
    <path d="M 506.938624 -1 
L 511.768878 4.796306 
L 517.368878 11.516306 
L 522.968878 18.236306 
L 528.568878 24.956306 
L 534.168878 31.676306 
L 539.768878 38.396306 
L 545.368878 45.116306 
L 550.968878 51.836306 
L 556.568878 58.556306 
L 562.168878 65.276306 
L 567.768878 71.996306 
L 573.368878 78.716306 
L 578.968878 85.436306 
L 584.568878 92.156306 
L 590.168878 98.876306 
L 595.768878 105.596306 
L 601.368878 112.316306 
L 606.968878 119.036306 
L 612.568878 125.756306 
L 618.168878 132.476306 
L 623.768878 139.196306 
L 629.368878 145.916306 
L 634.968878 152.636306 
L 640.568878 159.356306 
L 646.168878 166.076306 
L 651.768878 172.796306 
" clip-path="url(#p952e01796c)" style="fill: none; stroke-dasharray: 11.1,4.8; stroke-dashoffset: 0; stroke: #a9a9a9; stroke-width: 3"/>
   </g>
   <g id="PathCollection_6">
    <defs>
     <path id="m722d7290ae" d="M 0 -12.5 
L -2.806425 -3.862712 
L -11.888206 -3.862712 
L -4.540891 1.475425 
L -7.347316 10.112712 
L -0 4.774575 
L 7.347316 10.112712 
L 4.540891 1.475425 
L 11.888206 -3.862712 
L 2.806425 -3.862712 
z
" style="stroke: #000000"/>
    </defs>
    <g clip-path="url(#p952e01796c)">
     <use xlink:href="#m722d7290ae" x="332.602387" y="321.383629" style="fill: #800000; stroke: #000000"/>
    </g>
   </g>
   <g id="PathCollection_7">
    <g clip-path="url(#p952e01796c)">
     <use xlink:href="#m722d7290ae" x="341.469478" y="341.442407" style="fill: #800000; stroke: #000000"/>
    </g>
   </g>
   <g id="PathCollection_8">
    <g clip-path="url(#p952e01796c)">
     <use xlink:href="#m722d7290ae" x="313.71929" y="395.524155" style="fill: #800000; stroke: #000000"/>
    </g>
   </g>
   <g id="PathCollection_9">
    <g clip-path="url(#p952e01796c)">
     <use xlink:href="#m722d7290ae" x="298.136749" y="412.833247" style="fill: #800000; stroke: #000000"/>
    </g>
   </g>
   <g id="PathCollection_10">
    <g clip-path="url(#p952e01796c)">
     <use xlink:href="#m722d7290ae" x="283.514736" y="431.392221" style="fill: #800000; stroke: #000000"/>
    </g>
   </g>
   <g id="PathCollection_11">
    <defs>
     <path id="md37229fab5" d="M 0 -12.5 
L -2.806425 -3.862712 
L -11.888206 -3.862712 
L -4.540891 1.475425 
L -7.347316 10.112712 
L -0 4.774575 
L 7.347316 10.112712 
L 4.540891 1.475425 
L 11.888206 -3.862712 
L 2.806425 -3.862712 
z
" style="stroke: #000000"/>
    </defs>
    <g clip-path="url(#p952e01796c)">
     <use xlink:href="#md37229fab5" x="401.350718" y="191.909618" style="fill: #ff1300; stroke: #000000"/>
    </g>
   </g>
   <g id="PathCollection_12">
    <g clip-path="url(#p952e01796c)">
     <use xlink:href="#md37229fab5" x="375.311176" y="227.466776" style="fill: #ff1300; stroke: #000000"/>
    </g>
   </g>
   <g id="PathCollection_13">
    <g clip-path="url(#p952e01796c)">
     <use xlink:href="#md37229fab5" x="361.770667" y="269.934695" style="fill: #ff1300; stroke: #000000"/>
    </g>
   </g>
   <g id="PathCollection_14">
    <g clip-path="url(#p952e01796c)">
     <use xlink:href="#md37229fab5" x="346.415428" y="301.340862" style="fill: #ff1300; stroke: #000000"/>
    </g>
   </g>
   <g id="PathCollection_15">
    <g clip-path="url(#p952e01796c)">
     <use xlink:href="#md37229fab5" x="329.275945" y="320.446883" style="fill: #ff1300; stroke: #000000"/>
    </g>
   </g>
   <g id="PathCollection_16">
    <defs>
     <path id="m92d3fa2631" d="M 0 -12.5 
L -2.806425 -3.862712 
L -11.888206 -3.862712 
L -4.540891 1.475425 
L -7.347316 10.112712 
L -0 4.774575 
L 7.347316 10.112712 
L 4.540891 1.475425 
L 11.888206 -3.862712 
L 2.806425 -3.862712 
z
" style="stroke: #000000"/>
    </defs>
    <g clip-path="url(#p952e01796c)">
     <use xlink:href="#m92d3fa2631" x="449.674968" y="122.63276" style="fill: #ff7a00; stroke: #000000"/>
    </g>
   </g>
   <g id="PathCollection_17">
    <g clip-path="url(#p952e01796c)">
     <use xlink:href="#m92d3fa2631" x="413.783827" y="151.171892" style="fill: #ff7a00; stroke: #000000"/>
    </g>
   </g>
   <g id="PathCollection_18">
    <g clip-path="url(#p952e01796c)">
     <use xlink:href="#m92d3fa2631" x="368.802653" y="193.054261" style="fill: #ff7a00; stroke: #000000"/>
    </g>
   </g>
   <g id="PathCollection_19">
    <g clip-path="url(#p952e01796c)">
     <use xlink:href="#m92d3fa2631" x="376.827802" y="233.125078" style="fill: #ff7a00; stroke: #000000"/>
    </g>
   </g>
   <g id="PathCollection_20">
    <g clip-path="url(#p952e01796c)">
     <use xlink:href="#m92d3fa2631" x="341.810072" y="269.647185" style="fill: #ff7a00; stroke: #000000"/>
    </g>
   </g>
   <g id="PathCollection_21">
    <defs>
     <path id="m7dce316baa" d="M 0 -12.5 
L -2.806425 -3.862712 
L -11.888206 -3.862712 
L -4.540891 1.475425 
L -7.347316 10.112712 
L -0 4.774575 
L 7.347316 10.112712 
L 4.540891 1.475425 
L 11.888206 -3.862712 
L 2.806425 -3.862712 
z
" style="stroke: #000000"/>
    </defs>
    <g clip-path="url(#p952e01796c)">
     <use xlink:href="#m7dce316baa" x="464.395124" y="90.314728" style="fill: #ffe600; stroke: #000000"/>
    </g>
   </g>
   <g id="PathCollection_22">
    <g clip-path="url(#p952e01796c)">
     <use xlink:href="#m7dce316baa" x="420.427226" y="128.078377" style="fill: #ffe600; stroke: #000000"/>
    </g>
   </g>
   <g id="PathCollection_23">
    <g clip-path="url(#p952e01796c)">
     <use xlink:href="#m7dce316baa" x="378.863301" y="161.958764" style="fill: #ffe600; stroke: #000000"/>
    </g>
   </g>
   <g id="PathCollection_24">
    <g clip-path="url(#p952e01796c)">
     <use xlink:href="#m7dce316baa" x="391.001235" y="197.466586" style="fill: #ffe600; stroke: #000000"/>
    </g>
   </g>
   <g id="PathCollection_25">
    <g clip-path="url(#p952e01796c)">
     <use xlink:href="#m7dce316baa" x="352.920933" y="236.873509" style="fill: #ffe600; stroke: #000000"/>
    </g>
   </g>
   <g id="PathCollection_26">
    <defs>
     <path id="m85625ceedc" d="M 0 -12.5 
L -2.806425 -3.862712 
L -11.888206 -3.862712 
L -4.540891 1.475425 
L -7.347316 10.112712 
L -0 4.774575 
L 7.347316 10.112712 
L 4.540891 1.475425 
L 11.888206 -3.862712 
L 2.806425 -3.862712 
z
" style="stroke: #000000"/>
    </defs>
    <g clip-path="url(#p952e01796c)">
     <use xlink:href="#m85625ceedc" x="471.232029" y="57.937544" style="fill: #aaff4d; stroke: #000000"/>
    </g>
   </g>
   <g id="PathCollection_27">
    <g clip-path="url(#p952e01796c)">
     <use xlink:href="#m85625ceedc" x="437.369884" y="99.070533" style="fill: #aaff4d; stroke: #000000"/>
    </g>
   </g>
   <g id="PathCollection_28">
    <g clip-path="url(#p952e01796c)">
     <use xlink:href="#m85625ceedc" x="435.738165" y="106.901187" style="fill: #aaff4d; stroke: #000000"/>
    </g>
   </g>
   <g id="PathCollection_29">
    <g clip-path="url(#p952e01796c)">
     <use xlink:href="#m85625ceedc" x="365.017023" y="204.40536" style="fill: #aaff4d; stroke: #000000"/>
    </g>
   </g>
   <g id="PathCollection_30">
    <g clip-path="url(#p952e01796c)">
     <use xlink:href="#m85625ceedc" x="348.585926" y="220.13655" style="fill: #aaff4d; stroke: #000000"/>
    </g>
   </g>
   <g id="patch_3">
    <path d="M 97.368878 480.315134 
L 97.368878 36.795134 
" style="fill: none; stroke: #000000; stroke-width: 3; stroke-linejoin: miter; stroke-linecap: square"/>
   </g>
   <g id="patch_4">
    <path d="M 651.768878 480.315134 
L 651.768878 36.795134 
" style="fill: none; stroke: #000000; stroke-width: 3; stroke-linejoin: miter; stroke-linecap: square"/>
   </g>
   <g id="patch_5">
    <path d="M 97.368878 480.315134 
L 651.768878 480.315134 
" style="fill: none; stroke: #000000; stroke-width: 3; stroke-linejoin: miter; stroke-linecap: square"/>
   </g>
   <g id="patch_6">
    <path d="M 97.368878 36.795134 
L 651.768878 36.795134 
" style="fill: none; stroke: #000000; stroke-width: 3; stroke-linejoin: miter; stroke-linecap: square"/>
   </g>
   <g id="text_19">
    <!-- $\bm{150R_\odot}$ -->
    <g style="fill: #a9a9a9" transform="translate(527.952878 153.219134) scale(0.23 -0.23)">
     <defs>
      <path id="CMBX12-35" d="M 986 3315 
C 1203 3264 1376 3264 1472 3264 
C 1626 3264 1990 3264 2419 3527 
C 2618 3647 2950 3936 2950 4083 
C 2950 4115 2950 4192 2874 4192 
C 2867 4192 2854 4192 2790 4159 
C 2496 4054 2182 3982 1824 3982 
C 1459 3982 1152 4052 851 4160 
C 806 4173 787 4186 768 4186 
C 691 4186 691 4122 691 4014 
L 691 2163 
C 691 2042 691 1972 819 1972 
C 883 1972 896 1979 947 2042 
C 1024 2132 1254 2414 1798 2414 
C 2387 2414 2387 1815 2387 1312 
C 2387 852 2387 190 1600 190 
C 1363 190 960 279 742 640 
C 1082 640 1165 895 1165 1035 
C 1165 1264 998 1435 762 1435 
C 570 1435 358 1321 358 1022 
C 358 470 864 -64 1626 -64 
C 2611 -64 3232 503 3232 1293 
C 3232 2070 2701 2624 1824 2624 
C 1568 2624 1261 2573 986 2369 
L 986 3315 
z
" transform="scale(0.015625)"/>
      <path id="CMMIB10-52" d="M 2790 3981 
C 2816 4071 2822 4077 2829 4083 
C 2867 4096 3149 4096 3309 4096 
C 3891 4096 4493 4096 4493 3561 
C 4493 3555 4467 2929 4134 2594 
C 4045 2504 3757 2304 3117 2304 
L 2374 2304 
L 2790 3981 
z
M 4051 2182 
C 5197 2488 5402 3094 5402 3420 
C 5402 4058 4717 4396 3757 4396 
L 1536 4396 
C 1408 4396 1299 4396 1299 4211 
C 1299 4096 1382 4096 1568 4096 
C 1702 4096 1824 4096 1958 4096 
L 1043 442 
C 1018 339 1011 333 896 320 
C 787 320 659 320 557 320 
C 390 320 378 320 352 308 
C 275 263 275 161 275 136 
C 275 123 282 21 416 21 
C 576 21 742 21 902 21 
C 1056 21 1216 21 1370 21 
C 1587 21 2131 21 2349 21 
C 2400 21 2451 21 2483 66 
C 2515 97 2528 199 2528 206 
C 2528 320 2438 320 2266 320 
C 2131 320 2010 320 1875 320 
L 2317 2075 
L 3091 2075 
C 3277 2075 3725 2030 3725 1549 
C 3725 1460 3667 1230 3622 1069 
C 3558 800 3533 704 3533 601 
C 3533 -64 4390 -64 4723 -64 
C 5402 -64 5638 553 5638 652 
C 5638 762 5523 762 5485 762 
C 5376 762 5357 731 5331 635 
C 5248 381 5018 140 4774 140 
C 4602 140 4480 210 4480 530 
C 4480 625 4486 727 4570 1238 
C 4582 1314 4602 1435 4602 1493 
C 4602 1741 4467 2029 4051 2182 
z
" transform="scale(0.015625)"/>
     </defs>
     <use xlink:href="#CMBX12-31" transform="scale(0.996264)"/>
     <use xlink:href="#CMBX12-35" transform="translate(56.039851 0) scale(0.996264)"/>
     <use xlink:href="#CMBX12-30" transform="translate(112.079701 0) scale(0.996264)"/>
     <use xlink:href="#CMMIB10-52" transform="translate(168.119552 0) scale(0.996264)"/>
     <use xlink:href="#CMBSY10-c" transform="translate(255.028613 -14.943915) scale(0.697382)"/>
    </g>
   </g>
   <g id="text_20">
    <!-- $\bm{200R_\odot}$ -->
    <g style="fill: #a9a9a9" transform="translate(577.848878 70.059134) scale(0.23 -0.23)">
     <defs>
      <path id="CMBX12-32" d="M 3232 1368 
L 2963 1368 
C 2944 1234 2899 858 2803 795 
C 2752 750 2253 750 2157 750 
L 1165 750 
C 1408 954 1990 1438 2086 1509 
C 2797 2038 3232 2362 3232 2974 
C 3232 3725 2547 4178 1702 4178 
C 979 4178 358 3770 358 3165 
C 358 2827 634 2732 781 2732 
C 979 2732 1210 2865 1210 3159 
C 1210 3427 1011 3560 813 3586 
C 1069 3879 1408 3904 1542 3904 
C 2131 3904 2413 3427 2413 2968 
C 2413 2471 2074 2013 1811 1739 
L 422 293 
C 358 235 358 223 358 108 
L 358 0 
L 3046 0 
L 3232 1368 
z
" transform="scale(0.015625)"/>
     </defs>
     <use xlink:href="#CMBX12-32" transform="scale(0.996264)"/>
     <use xlink:href="#CMBX12-30" transform="translate(56.039851 0) scale(0.996264)"/>
     <use xlink:href="#CMBX12-30" transform="translate(112.079701 0) scale(0.996264)"/>
     <use xlink:href="#CMMIB10-52" transform="translate(168.119552 0) scale(0.996264)"/>
     <use xlink:href="#CMBSY10-c" transform="translate(255.028613 -14.943915) scale(0.697382)"/>
    </g>
   </g>
   <g id="text_21">
    <!-- $\bm{50R_\odot}$ -->
    <g style="fill: #a9a9a9" transform="translate(337.608878 452.595134) scale(0.23 -0.23)">
     <use xlink:href="#CMBX12-35" transform="scale(0.996264)"/>
     <use xlink:href="#CMBX12-30" transform="translate(56.039851 0) scale(0.996264)"/>
     <use xlink:href="#CMMIB10-52" transform="translate(112.079701 0) scale(0.996264)"/>
     <use xlink:href="#CMBSY10-c" transform="translate(198.988762 -14.943915) scale(0.697382)"/>
    </g>
   </g>
   <g id="text_22">
    <!-- $\bm{100R_\odot}$ -->
    <g style="fill: #a9a9a9" transform="translate(457.728878 258.555134) scale(0.23 -0.23)">
     <use xlink:href="#CMBX12-31" transform="scale(0.996264)"/>
     <use xlink:href="#CMBX12-30" transform="translate(56.039851 0) scale(0.996264)"/>
     <use xlink:href="#CMBX12-30" transform="translate(112.079701 0) scale(0.996264)"/>
     <use xlink:href="#CMMIB10-52" transform="translate(168.119552 0) scale(0.996264)"/>
     <use xlink:href="#CMBSY10-c" transform="translate(255.028613 -14.943915) scale(0.697382)"/>
    </g>
   </g>
   <g id="text_23">
    <!-- Max$\left(SOF_{temp}\right)$ = $10^{8.48\,\pm\,0.01} K$ -->
    <g transform="translate(210.222531 29.099049) scale(0.27 -0.27)">
     <defs>
      <path id="CMSS17-4d" d="M 3194 2371 
L 2886 1473 
C 2835 1307 2662 791 2624 587 
L 2618 587 
C 2598 715 2560 849 2458 1174 
C 2400 1365 2336 1562 2272 1741 
L 1325 4416 
L 576 4416 
L 576 0 
L 1075 0 
L 1075 3900 
L 1082 3900 
C 1082 3894 1139 3613 1530 2499 
L 2374 96 
L 2848 96 
L 3610 2231 
C 3661 2378 3821 2843 3891 3066 
C 3955 3257 4115 3728 4154 3913 
L 4160 3913 
L 4160 0 
L 4666 0 
L 4666 4416 
L 3923 4416 
L 3194 2371 
z
" transform="scale(0.015625)"/>
      <path id="CMSS17-61" d="M 2406 1791 
C 2406 2392 1978 2808 1402 2808 
C 1120 2808 813 2757 461 2553 
L 499 2135 
C 659 2248 934 2432 1395 2432 
C 1722 2432 1920 2180 1920 1782 
L 1920 1536 
C 896 1536 256 1238 256 726 
C 256 461 416 -64 947 -64 
C 1043 -64 1562 -64 1933 217 
L 1933 -19 
L 2406 -19 
L 2406 1791 
z
M 1920 816 
C 1920 701 1920 548 1728 434 
C 1562 325 1350 325 1261 325 
C 941 325 723 511 723 744 
C 723 1211 1722 1211 1920 1211 
L 1920 816 
z
" transform="scale(0.015625)"/>
      <path id="CMSS17-78" d="M 1587 1414 
L 2656 2739 
L 2099 2739 
L 1363 1777 
L 602 2739 
L 32 2739 
L 1139 1414 
L 0 0 
L 563 0 
L 1363 1121 
L 2195 0 
L 2758 0 
L 1587 1414 
z
" transform="scale(0.015625)"/>
      <path id="CMMI12-53" d="M 4064 4423 
C 4064 4480 4019 4480 4006 4480 
C 3981 4480 3974 4474 3898 4378 
C 3859 4333 3597 4001 3590 3995 
C 3379 4410 2957 4480 2688 4480 
C 1875 4480 1139 3743 1139 3025 
C 1139 2549 1427 2269 1741 2161 
C 1811 2135 2189 2033 2381 1989 
C 2707 1900 2790 1875 2925 1735 
C 2950 1703 3078 1557 3078 1258 
C 3078 667 2528 57 1888 57 
C 1363 57 781 280 781 991 
C 781 1112 806 1265 826 1328 
C 826 1348 832 1378 832 1391 
C 832 1417 819 1449 768 1449 
C 710 1449 704 1436 678 1328 
L 352 24 
C 352 18 326 -64 326 -71 
C 326 -128 378 -128 390 -128 
C 416 -128 422 -122 499 -26 
L 794 356 
C 947 126 1280 -128 1875 -128 
C 2701 -128 3456 666 3456 1460 
C 3456 1728 3392 1963 3149 2197 
C 3014 2331 2899 2363 2310 2516 
C 1882 2630 1824 2649 1709 2751 
C 1600 2858 1517 3011 1517 3227 
C 1517 3761 2061 4308 2669 4308 
C 3296 4308 3590 3926 3590 3323 
C 3590 3158 3558 2986 3558 2961 
C 3558 2903 3610 2903 3629 2903 
C 3686 2903 3693 2922 3718 3024 
L 4064 4423 
z
" transform="scale(0.015625)"/>
      <path id="CMMI12-4f" d="M 4646 2797 
C 4646 3848 3955 4492 3059 4492 
C 1690 4492 307 3026 307 1554 
C 307 554 973 -128 1901 -128 
C 3245 -128 4646 1268 4646 2797 
z
M 1939 19 
C 1414 19 858 401 858 1395 
C 858 1974 1069 2924 1594 3562 
C 2061 4123 2598 4352 3027 4352 
C 3590 4352 4134 3944 4134 3026 
C 4134 2459 3891 1573 3462 968 
C 2995 318 2413 19 1939 19 
z
" transform="scale(0.015625)"/>
      <path id="CMMI12-46" d="M 1901 2055 
L 2515 2055 
C 3002 2055 3040 1946 3040 1761 
C 3040 1678 3027 1589 2995 1448 
C 2982 1423 2976 1391 2976 1378 
C 2976 1333 3002 1308 3046 1308 
C 3098 1308 3104 1333 3130 1435 
L 3501 2935 
C 3501 2961 3482 2999 3437 2999 
C 3379 2999 3373 2974 3347 2863 
C 3213 2376 3085 2240 2528 2240 
L 1946 2240 
L 2362 3926 
C 2419 4154 2432 4154 2694 4154 
L 3552 4154 
C 4352 4154 4467 3918 4467 3464 
C 4467 3426 4467 3285 4448 3119 
C 4442 3094 4429 3011 4429 2985 
C 4429 2934 4461 2915 4499 2915 
C 4544 2915 4570 2941 4582 3055 
L 4717 4174 
C 4717 4195 4730 4263 4730 4277 
C 4730 4352 4672 4352 4557 4352 
L 1523 4352 
C 1402 4352 1338 4352 1338 4229 
C 1338 4154 1382 4154 1491 4154 
C 1888 4154 1888 4113 1888 4050 
C 1888 4018 1882 3992 1862 3922 
L 998 473 
C 941 249 928 185 480 185 
C 358 185 294 185 294 70 
C 294 0 352 0 390 0 
C 512 0 640 0 762 0 
L 1594 0 
C 1734 0 1888 0 2029 0 
C 2086 0 2163 0 2163 115 
C 2163 185 2125 185 1984 185 
C 1478 185 1466 229 1466 324 
C 1466 356 1478 406 1491 449 
L 1901 2055 
z
" transform="scale(0.015625)"/>
      <path id="CMMI12-74" d="M 1286 2566 
L 1875 2566 
C 1997 2566 2061 2566 2061 2681 
C 2061 2752 2022 2752 1894 2752 
L 1331 2752 
L 1568 3692 
C 1594 3781 1594 3794 1594 3840 
C 1594 3943 1510 4000 1427 4000 
C 1376 4000 1229 3981 1178 3775 
L 928 2752 
L 326 2752 
C 198 2752 141 2752 141 2630 
C 141 2566 186 2566 307 2566 
L 877 2566 
L 454 881 
C 403 658 384 594 384 511 
C 384 211 595 -64 954 -64 
C 1600 -64 1946 868 1946 912 
C 1946 951 1920 970 1882 970 
C 1869 970 1843 970 1830 944 
C 1824 938 1818 931 1773 829 
C 1638 511 1344 64 973 64 
C 781 64 768 224 768 364 
C 768 370 768 492 787 568 
L 1286 2566 
z
" transform="scale(0.015625)"/>
      <path id="CMMI12-65" d="M 1146 1479 
C 1318 1479 1754 1479 2061 1595 
C 2547 1783 2592 2158 2592 2274 
C 2592 2558 2349 2816 1926 2816 
C 1254 2816 288 2210 288 1073 
C 288 402 672 -64 1254 -64 
C 2125 -64 2675 609 2675 692 
C 2675 730 2637 762 2611 762 
C 2592 762 2586 756 2528 699 
C 2118 159 1510 64 1267 64 
C 902 64 710 350 710 822 
C 710 911 710 1071 806 1479 
L 1146 1479 
z
M 838 1600 
C 1114 2592 1722 2689 1926 2689 
C 2208 2689 2400 2522 2400 2277 
C 2400 1600 1376 1600 1107 1600 
L 838 1600 
z
" transform="scale(0.015625)"/>
      <path id="CMMI12-6d" d="M 1318 1871 
C 1331 1910 1491 2229 1728 2433 
C 1894 2586 2112 2689 2362 2689 
C 2618 2689 2707 2497 2707 2242 
C 2707 2203 2707 2076 2630 1775 
L 2470 1118 
C 2419 926 2298 453 2285 383 
C 2259 287 2221 121 2221 96 
C 2221 6 2291 -64 2387 -64 
C 2579 -64 2611 83 2669 313 
L 3053 1839 
C 3066 1890 3398 2689 4102 2689 
C 4358 2689 4448 2497 4448 2242 
C 4448 1884 4198 1188 4058 805 
C 4000 651 3968 568 3968 453 
C 3968 166 4166 -64 4474 -64 
C 5069 -64 5293 875 5293 913 
C 5293 945 5267 971 5229 971 
C 5171 971 5165 952 5133 843 
C 4986 332 4749 64 4493 64 
C 4429 64 4326 64 4326 269 
C 4326 436 4403 640 4429 710 
C 4544 1018 4832 1773 4832 2145 
C 4832 2528 4608 2816 4122 2816 
C 3693 2816 3347 2574 3091 2197 
C 3072 2542 2861 2816 2381 2816 
C 1811 2816 1510 2415 1395 2255 
C 1376 2618 1114 2816 832 2816 
C 646 2816 499 2727 378 2484 
C 262 2254 173 1865 173 1839 
C 173 1814 198 1782 243 1782 
C 294 1782 301 1788 339 1935 
C 435 2312 557 2689 813 2689 
C 960 2689 1011 2586 1011 2395 
C 1011 2254 947 2005 902 1807 
L 723 1118 
C 698 996 627 709 595 594 
C 550 428 480 128 480 96 
C 480 6 550 -64 646 -64 
C 723 -64 813 -26 864 70 
C 877 102 934 326 966 453 
L 1107 1028 
L 1318 1871 
z
" transform="scale(0.015625)"/>
      <path id="CMMI12-70" d="M 275 -789 
C 230 -980 205 -1031 -58 -1031 
C -134 -1031 -198 -1031 -198 -1152 
C -198 -1165 -192 -1216 -122 -1216 
C -38 -1216 51 -1216 134 -1216 
L 410 -1216 
C 544 -1216 870 -1216 1005 -1216 
C 1043 -1216 1120 -1216 1120 -1101 
C 1120 -1031 1075 -1031 966 -1031 
C 672 -1031 653 -987 653 -937 
C 653 -861 941 219 979 364 
C 1050 185 1222 -64 1555 -64 
C 2278 -64 3059 875 3059 1814 
C 3059 2401 2726 2816 2246 2816 
C 1837 2816 1491 2420 1421 2331 
C 1370 2650 1120 2816 864 2816 
C 678 2816 531 2727 410 2484 
C 294 2254 205 1865 205 1839 
C 205 1814 230 1782 275 1782 
C 326 1782 333 1788 371 1935 
C 467 2312 589 2689 845 2689 
C 992 2689 1043 2587 1043 2397 
C 1043 2245 1024 2181 998 2067 
L 275 -789 
z
M 1382 1993 
C 1427 2171 1606 2357 1709 2446 
C 1779 2510 1990 2689 2234 2689 
C 2515 2689 2643 2408 2643 2076 
C 2643 1769 2464 1047 2304 715 
C 2144 370 1850 64 1555 64 
C 1120 64 1050 613 1050 639 
C 1050 658 1062 709 1069 741 
L 1382 1993 
z
" transform="scale(0.015625)"/>
      <path id="CMSS17-3d" d="M 4147 2017 
C 4243 2017 4339 2017 4339 2125 
C 4339 2240 4230 2240 4122 2240 
L 550 2240 
C 442 2240 333 2240 333 2125 
C 333 2017 429 2017 525 2017 
L 4147 2017 
z
M 4122 896 
C 4230 896 4339 896 4339 1011 
C 4339 1119 4243 1119 4147 1119 
L 525 1119 
C 429 1119 333 1119 333 1011 
C 333 896 442 896 550 896 
L 4122 896 
z
" transform="scale(0.015625)"/>
      <path id="CMSY10-6" d="M 2618 1984 
L 4397 1984 
C 4506 1984 4621 1984 4621 2112 
C 4621 2240 4506 2240 4397 2240 
L 2618 2240 
L 2618 4018 
C 2618 4121 2618 4256 2490 4256 
C 2362 4256 2362 4140 2362 4038 
L 2362 2240 
L 576 2240 
C 467 2240 352 2240 352 2112 
C 352 1984 467 1984 576 1984 
L 2362 1984 
L 2362 256 
L 576 256 
C 467 256 352 256 352 128 
C 352 0 467 0 576 0 
L 4397 0 
C 4506 0 4621 0 4621 128 
C 4621 256 4506 256 4397 256 
L 2618 256 
L 2618 1984 
z
" transform="scale(0.015625)"/>
      <path id="CMMI12-4b" d="M 3200 2571 
C 3194 2590 3168 2641 3168 2661 
C 3168 2667 3174 2673 3283 2756 
L 3904 3242 
C 4762 3905 5043 4128 5485 4167 
C 5530 4167 5594 4167 5594 4282 
C 5594 4320 5574 4352 5523 4352 
C 5453 4352 5376 4352 5306 4352 
L 5062 4352 
C 4864 4352 4653 4352 4461 4352 
C 4416 4352 4339 4352 4339 4237 
C 4339 4173 4384 4167 4422 4167 
C 4493 4160 4576 4135 4576 4046 
C 4576 3919 4384 3765 4333 3727 
L 1824 1784 
L 2355 3887 
C 2413 4103 2426 4167 2880 4167 
C 3002 4167 3059 4167 3059 4288 
C 3059 4352 2995 4352 2963 4352 
C 2848 4352 2714 4352 2592 4352 
L 1837 4352 
C 1722 4352 1581 4352 1466 4352 
C 1414 4352 1344 4352 1344 4231 
C 1344 4167 1402 4167 1498 4167 
C 1888 4167 1888 4116 1888 4046 
C 1888 4034 1888 3995 1862 3899 
L 998 472 
C 941 249 928 185 480 185 
C 358 185 294 185 294 70 
C 294 0 352 0 390 0 
C 512 0 640 0 762 0 
L 1510 0 
C 1632 0 1766 0 1888 0 
C 1939 0 2010 0 2010 121 
C 2010 185 1952 185 1856 185 
C 1466 185 1466 236 1466 300 
C 1466 345 1504 504 1530 606 
L 1779 1593 
L 2752 2351 
C 2938 1943 3277 1128 3539 505 
C 3558 466 3571 428 3571 383 
C 3571 185 3315 185 3258 185 
C 3200 185 3136 185 3136 64 
C 3136 0 3206 0 3226 0 
C 3450 0 3686 0 3910 0 
L 4218 0 
C 4314 0 4422 0 4518 0 
C 4557 0 4627 0 4627 121 
C 4627 185 4570 185 4506 185 
C 4269 185 4186 236 4090 466 
L 3200 2571 
z
" transform="scale(0.015625)"/>
     </defs>
     <use xlink:href="#CMSS17-4d" transform="scale(0.996264)"/>
     <use xlink:href="#CMSS17-61" transform="translate(81.67603 0) scale(0.996264)"/>
     <use xlink:href="#CMSS17-78" transform="translate(126.597951 0) scale(0.996264)"/>
     <use xlink:href="#CMEX10-0" transform="translate(169.598092 80.698084) scale(0.996264)"/>
     <use xlink:href="#CMMI12-53" transform="translate(215.260446 0) scale(0.996264)"/>
     <use xlink:href="#CMMI12-4f" transform="translate(281.054885 0) scale(0.996264)"/>
     <use xlink:href="#CMMI12-46" transform="translate(358.315284 0) scale(0.996264)"/>
     <use xlink:href="#CMMI12-74" transform="translate(421.463488 -14.943915) scale(0.697382)"/>
     <use xlink:href="#CMMI12-65" transform="translate(446.121797 -14.943915) scale(0.697382)"/>
     <use xlink:href="#CMMI12-6d" transform="translate(477.770054 -14.943915) scale(0.697382)"/>
     <use xlink:href="#CMMI12-70" transform="translate(537.498845 -14.943915) scale(0.697382)"/>
     <use xlink:href="#CMEX10-1" transform="translate(572.268483 80.698084) scale(0.996264)"/>
     <use xlink:href="#CMSS17-3d" transform="translate(649.15995 0) scale(0.996264)"/>
     <use xlink:href="#CMR17-31" transform="translate(753.256997 0) scale(0.996264)"/>
     <use xlink:href="#CMR17-30" transform="translate(798.947474 0) scale(0.996264)"/>
     <use xlink:href="#CMR17-38" transform="translate(844.637951 36.153639) scale(0.697382)"/>
     <use xlink:href="#CMMI12-3a" transform="translate(876.621133 36.153639) scale(0.697382)"/>
     <use xlink:href="#CMR17-34" transform="translate(895.589066 36.153639) scale(0.697382)"/>
     <use xlink:href="#CMR17-38" transform="translate(927.572248 36.153639) scale(0.697382)"/>
     <use xlink:href="#CMSY10-6" transform="translate(971.178454 36.153639) scale(0.697382)"/>
     <use xlink:href="#CMR17-30" transform="translate(1037.042472 36.153639) scale(0.697382)"/>
     <use xlink:href="#CMMI12-3a" transform="translate(1069.025654 36.153639) scale(0.697382)"/>
     <use xlink:href="#CMR17-30" transform="translate(1087.993587 36.153639) scale(0.697382)"/>
     <use xlink:href="#CMR17-31" transform="translate(1119.976769 36.153639) scale(0.697382)"/>
     <use xlink:href="#CMMI12-4b" transform="translate(1152.458083 0) scale(0.996264)"/>
    </g>
   </g>
  </g>
 </g>
 <defs>
  <clipPath id="p952e01796c">
   <rect x="97.368878" y="36.795134" width="554.4" height="443.52"/>
  </clipPath>
 </defs>
</svg>
